<svg width="64" height="64" version="1.1" viewBox="0 0 16.9 16.9" xmlns="http://www.w3.org/2000/svg">
 <rect width="16.9" height="16.9" ry="1.77" fill="#ececec"/>
 <text fill="black" font-family="sans-serif" font-size="10.6px" letter-spacing="0px" word-spacing="0px" style="line-height:1.25;shape-inside:url(#rect1175);white-space:pre" xml:space="preserve"/>
 <g transform="translate(.222 .0392)">
  <rect x="1.34" y="1.79" width="13.8" height="13.3" fill="#ccc" stroke="#999" stroke-linecap="round" stroke-linejoin="round" stroke-width=".48"/>
  <path d="m1.3 4.68h14" fill="none" stroke="#999" stroke-width=".265px"/>
  <path d="m1.3 6.8h14" fill="none" stroke="#999" stroke-width=".265px"/>
  <path d="m1.3 8.92h14" fill="none" stroke="#999" stroke-width=".265px"/>
  <path d="m1.3 11h14" fill="none" stroke="#999" stroke-width=".265px"/>
  <path d="m8.39 1.91v13.3" fill="none" stroke="#999" stroke-width=".265px"/>
  <path d="m1.3 13.1h14" fill="none" stroke="#999" stroke-width=".265px"/>
  <rect x="1.34" y="1.83" width="13.8" height="2.85" fill="#999"/>
 </g>
 <g transform="matrix(.986 0 0 .986 -18.3 -2.23)" fill="#008000" aria-label="Σ">
  <path d="m19.1 3.33h5.26l.14 1.76h-.196q-.0362-.522-.176-.796-.14-.279-.382-.403-.243-.124-.77-.124h-2.39l2.13 2.74-2.43 2.87h2.66q.723 0 1.11-.233.382-.233.574-.972l.196.0465-.3 2.12h-5.42v-.186l2.7-3.18-2.7-3.45z" fill="#008000" stroke-width=".265"/>
 </g>
 <path d="m9.65 4 2.76 3.99v4.25l1.36-1.25v-3.01l2.76-3.99z" fill="#333" stroke-linecap="round" stroke-linejoin="round" stroke-width=".298"/>
 <g transform="matrix(.808 0 0 .808 -15 8.68)">
  <path d="m30.5 3.76h-.606v-.386q-.081.0551-.22.155-.136.0972-.266.155-.152.0745-.35.123-.198.0518-.463.0518-.489 0-.829-.324-.34-.324-.34-.826 0-.411.175-.664.178-.256.505-.402.33-.146.794-.198.463-.0518.995-.0777v-.0939q0-.207-.0745-.343-.0713-.136-.207-.214-.13-.0745-.311-.1-.181-.0259-.379-.0259-.24 0-.535.0648-.295.0616-.609.181h-.0324v-.619q.178-.0486.515-.107.337-.0583.664-.0583.382 0 .664.0648.285.0616.492.214.204.149.311.386.107.236.107.586zm-.606-.891v-1.01q-.279.0162-.658.0486-.376.0324-.596.0939-.262.0745-.424.233-.162.155-.162.431 0 .311.188.47.188.155.573.155.321 0 .586-.123.266-.126.492-.301z" fill="#800000"/>
  <path d="m30.4 9.4h-2.92v-.45l2.11-2.66h-2.06v-.509h2.82v.434l-2.12 2.67h2.17z" fill="#1a1a1a"/>
  <path transform="scale(.265)" d="m94 4.27v22.5l-1.77-1.77-2.13 2.13 1.07 1.07 2.42 2.42-.043.043 2.14 2.13 4.35-4.35 1.07-1.07-2.14-2.13-1.07 1.07-.863.861v-22.9z" color="#000000" color-rendering="auto" dominant-baseline="auto" image-rendering="auto" shape-rendering="auto" solid-color="#000000" stop-color="#000000" style="font-feature-settings:normal;font-variant-alternates:normal;font-variant-caps:normal;font-variant-east-asian:normal;font-variant-ligatures:normal;font-variant-numeric:normal;font-variant-position:normal;font-variation-settings:normal;inline-size:0;isolation:auto;mix-blend-mode:normal;shape-margin:0;shape-padding:0;text-decoration-color:#000000;text-decoration-line:none;text-decoration-style:solid;text-indent:0;text-orientation:mixed;text-transform:none;white-space:normal"/>
 </g>
</svg>
